<svg xmlns="http://www.w3.org/2000/svg" width="1200" height="1200" viewBox="0 0 1200 1200">
<title>Digital Rupee Coin Back</title>
<defs>
<radialGradient id="gold" cx="35%" cy="25%" r="75%"><stop offset="0%" stop-color="#fff4a8"/><stop offset="35%" stop-color="#ffd24a"/><stop offset="70%" stop-color="#b97300"/><stop offset="100%" stop-color="#f5bb28"/></radialGradient>
<filter id="s"><feDropShadow dx="0" dy="18" stdDeviation="18" flood-opacity=".35"/></filter>
<filter id="e"><feDropShadow dx="3" dy="3" stdDeviation="1" flood-color="#5b3300"/><feDropShadow dx="-1" dy="-1" stdDeviation="1" flood-color="#fff0a0"/></filter>
</defs>
<circle cx="600" cy="600" r="545" fill="url(#gold)" filter="url(#s)"/>
<circle cx="600" cy="600" r="545" fill="none" stroke="#5d3300" stroke-width="14"/>
<circle cx="600" cy="600" r="500" fill="none" stroke="#ffd86b" stroke-width="12"/>
<g transform="translate(600 600)" stroke="#6d3c00" stroke-width="7" stroke-linecap="round">
<line id="t" x1="0" y1="-535" x2="0" y2="-505"/>
<use href="#t" transform="rotate(10)"/><use href="#t" transform="rotate(20)"/><use href="#t" transform="rotate(30)"/><use href="#t" transform="rotate(40)"/><use href="#t" transform="rotate(50)"/><use href="#t" transform="rotate(60)"/><use href="#t" transform="rotate(70)"/><use href="#t" transform="rotate(80)"/><use href="#t" transform="rotate(90)"/><use href="#t" transform="rotate(100)"/><use href="#t" transform="rotate(110)"/><use href="#t" transform="rotate(120)"/><use href="#t" transform="rotate(130)"/><use href="#t" transform="rotate(140)"/><use href="#t" transform="rotate(150)"/><use href="#t" transform="rotate(160)"/><use href="#t" transform="rotate(170)"/><use href="#t" transform="rotate(180)"/><use href="#t" transform="rotate(190)"/><use href="#t" transform="rotate(200)"/><use href="#t" transform="rotate(210)"/><use href="#t" transform="rotate(220)"/><use href="#t" transform="rotate(230)"/><use href="#t" transform="rotate(240)"/><use href="#t" transform="rotate(250)"/><use href="#t" transform="rotate(260)"/><use href="#t" transform="rotate(270)"/><use href="#t" transform="rotate(280)"/><use href="#t" transform="rotate(290)"/><use href="#t" transform="rotate(300)"/><use href="#t" transform="rotate(310)"/><use href="#t" transform="rotate(320)"/><use href="#t" transform="rotate(330)"/><use href="#t" transform="rotate(340)"/><use href="#t" transform="rotate(350)"/>
</g>
<text x="600" y="180" text-anchor="middle" font-family="Arial,sans-serif" font-size="84" font-weight="900" fill="#ffd95a" stroke="#6b3900" stroke-width="5" filter="url(#e)">एक रुपया</text>
<g stroke="#f9cf55" stroke-width="4" fill="none" opacity=".75" stroke-linecap="round"><path d="M270 260h150v70h85M930 260H780v70h-85M250 690h150v-45h95M950 690H800v-45h-95"/><circle cx="505" cy="330" r="8" fill="#f9cf55"/><circle cx="695" cy="330" r="8" fill="#f9cf55"/><circle cx="495" cy="645" r="8" fill="#f9cf55"/><circle cx="705" cy="645" r="8" fill="#f9cf55"/></g>
<text x="600" y="710" text-anchor="middle" font-family="Georgia,serif" font-size="560" font-weight="900" fill="url(#gold)" stroke="#6b3900" stroke-width="10" filter="url(#e)">1</text>
<g transform="translate(350 610) rotate(-22)" fill="url(#gold)" stroke="#6b3900" stroke-width="5" filter="url(#e)"><path d="M0 250C20 140 28 50 0-120" fill="none" stroke="#6b3900" stroke-width="10"/><ellipse cx="-35" cy="-80" rx="22" ry="58" transform="rotate(-35 -35 -80)"/><ellipse cx="34" cy="-48" rx="22" ry="58" transform="rotate(35 34 -48)"/><ellipse cx="-39" cy="8" rx="22" ry="58" transform="rotate(-35 -39 8)"/><ellipse cx="40" cy="40" rx="22" ry="58" transform="rotate(35 40 40)"/><ellipse cx="-40" cy="96" rx="22" ry="58" transform="rotate(-35 -40 96)"/><ellipse cx="35" cy="128" rx="22" ry="58" transform="rotate(35 35 128)"/></g>
<g transform="translate(850 610) rotate(22) scale(-1 1)" fill="url(#gold)" stroke="#6b3900" stroke-width="5" filter="url(#e)"><path d="M0 250C20 140 28 50 0-120" fill="none" stroke="#6b3900" stroke-width="10"/><ellipse cx="-35" cy="-80" rx="22" ry="58" transform="rotate(-35 -35 -80)"/><ellipse cx="34" cy="-48" rx="22" ry="58" transform="rotate(35 34 -48)"/><ellipse cx="-39" cy="8" rx="22" ry="58" transform="rotate(-35 -39 8)"/><ellipse cx="40" cy="40" rx="22" ry="58" transform="rotate(35 40 40)"/><ellipse cx="-40" cy="96" rx="22" ry="58" transform="rotate(-35 -40 96)"/><ellipse cx="35" cy="128" rx="22" ry="58" transform="rotate(35 35 128)"/></g>
<g fill="none" stroke-linecap="round" stroke-width="25"><path d="M230 750C310 690 360 720 420 650" stroke="#ff8c00"/><path d="M235 790C320 730 365 760 430 690" stroke="#fff"/><path d="M240 830C330 770 375 800 440 730" stroke="#138808"/><path d="M970 750C890 690 840 720 780 650" stroke="#ff8c00"/><path d="M965 790C880 730 835 760 770 690" stroke="#fff"/><path d="M960 830C870 770 825 800 760 730" stroke="#138808"/></g>
<text x="600" y="850" text-anchor="middle" font-family="Georgia,serif" font-size="110" font-weight="900" fill="#ffd95a" stroke="#6b3900" stroke-width="5" filter="url(#e)">RUPEE</text>
<text x="600" y="965" text-anchor="middle" font-family="Georgia,serif" font-size="92" font-weight="900" fill="#ffd95a" stroke="#6b3900" stroke-width="4" filter="url(#e)">1999</text>
<circle cx="600" cy="1012" r="14" fill="#ffd95a" stroke="#6b3900" stroke-width="5"/>
</svg>